<svg width="529" height="530" xmlns="http://www.w3.org/2000/svg" xmlns:xlink="http://www.w3.org/1999/xlink" xml:space="preserve" overflow="hidden"><g transform="translate(-1266 -895)"><path d="M1273 1160C1273 1017.51 1388.29 902 1530.5 902 1672.71 902 1788 1017.51 1788 1160 1788 1302.49 1672.71 1418 1530.5 1418 1388.29 1418 1273 1302.49 1273 1160Z" stroke="#4472C4" stroke-width="13.75" stroke-miterlimit="8" fill="none" fill-rule="evenodd"/><path d="M1316.5 1160.5C1316.5 1041.76 1412.76 945.5 1531.5 945.5 1650.24 945.5 1746.5 1041.76 1746.5 1160.5 1746.5 1279.24 1650.24 1375.5 1531.5 1375.5 1412.76 1375.5 1316.5 1279.24 1316.5 1160.5Z" stroke="#4472C4" stroke-width="6.875" stroke-miterlimit="8" fill="none" fill-rule="evenodd"/><path d="M1342.5 1160.5C1342.5 1056.12 1427.12 971.5 1531.5 971.5 1635.88 971.5 1720.5 1056.12 1720.5 1160.5 1720.5 1264.88 1635.88 1349.5 1531.5 1349.5 1427.12 1349.5 1342.5 1264.88 1342.5 1160.5Z" stroke="#FFC000" stroke-width="6.875" stroke-miterlimit="8" fill="none" fill-rule="evenodd"/><path d="M1359.5 1160.5C1359.5 1065.51 1436.51 988.5 1531.5 988.5 1626.49 988.5 1703.5 1065.51 1703.5 1160.5 1703.5 1255.49 1626.49 1332.5 1531.5 1332.5 1436.51 1332.5 1359.5 1255.49 1359.5 1160.5Z" stroke="#FF0000" stroke-width="4.58333" stroke-miterlimit="8" fill="none" fill-rule="evenodd"/></g></svg>